<?xml version="1.0" encoding="UTF-8"?>
<!DOCTYPE svg PUBLIC "-//W3C//DTD SVG 1.1//EN" "http://www.w3.org/Graphics/SVG/1.1/DTD/svg11.dtd">
<!-- Creator: CorelDRAW 2020 (64 Bit) -->
<svg xmlns="http://www.w3.org/2000/svg" xml:space="preserve" width="268.816mm" height="128.587mm" version="1.1" style="shape-rendering:geometricPrecision; text-rendering:geometricPrecision; image-rendering:optimizeQuality; fill-rule:evenodd; clip-rule:evenodd"
viewBox="0 0 9359.35 4477.01"
 xmlns:xlink="http://www.w3.org/1999/xlink"
 xmlns:xodm="http://www.corel.com/coreldraw/odm/2003">
 <defs>
  <style type="text/css">
   <![CDATA[
    .fil14 {fill:none;fill-rule:nonzero}
    .fil13 {fill:#00AFEF;fill-rule:nonzero}
    .fil7 {fill:#3E4095;fill-rule:nonzero}
    .fil6 {fill:#2F2E41;fill-rule:nonzero}
    .fil0 {fill:#3F3D56;fill-rule:nonzero}
    .fil8 {fill:#BE6F72;fill-rule:nonzero}
    .fil12 {fill:#E3E8F4;fill-rule:nonzero}
    .fil4 {fill:#E6E6E6;fill-rule:nonzero}
    .fil11 {fill:#F86D70;fill-rule:nonzero}
    .fil10 {fill:#FBBEBE;fill-rule:nonzero}
    .fil2 {fill:#FF6584;fill-rule:nonzero}
    .fil5 {fill:#FFB9B9;fill-rule:nonzero}
    .fil1 {fill:#FFE162;fill-rule:nonzero}
    .fil9 {fill:black;fill-rule:nonzero;fill-opacity:0.101961}
    .fil3 {fill:black;fill-rule:nonzero;fill-opacity:0.200000}
   ]]>
  </style>
   <clipPath id="id0" style="clip-rule:nonzero">
    <path d="M3730.84 3528.18l5628.51 0 0 -3528.18 -5628.51 0 0 3528.18z"/>
   </clipPath>
 </defs>
 <g id="Camada_x0020_1">
  <metadata id="CorelCorpID_0Corel-Layer"/>
  <path class="fil0" d="M1847.92 4477.01c1020.57,0 1847.92,-55.4 1847.92,-123.74 0,-68.35 -827.35,-123.75 -1847.92,-123.75 -1020.58,0 -1847.92,55.4 -1847.92,123.75 0,68.33 827.34,123.74 1847.92,123.74z"/>
  <polygon class="fil0" points="1878.89,3002.46 1816.95,3002.46 1816.95,3038.55 1878.89,3038.55 "/>
  <polygon class="fil0" points="2002.77,3002.46 1940.83,3002.46 1940.83,3038.55 2002.77,3038.55 "/>
  <polygon class="fil0" points="2126.65,3002.46 2064.72,3002.46 2064.72,3038.55 2126.65,3038.55 "/>
  <polygon class="fil0" points="2250.54,3002.46 2188.6,3002.46 2188.6,3038.55 2250.54,3038.55 "/>
  <polygon class="fil0" points="2374.42,3002.46 2312.48,3002.46 2312.48,3038.55 2374.42,3038.55 "/>
  <polygon class="fil0" points="2498.3,3002.46 2436.36,3002.46 2436.36,3038.55 2498.3,3038.55 "/>
  <polygon class="fil0" points="2622.18,3002.46 2560.24,3002.46 2560.24,3038.55 2622.18,3038.55 "/>
  <polygon class="fil0" points="2746.06,3002.46 2684.13,3002.46 2684.13,3038.55 2746.06,3038.55 "/>
  <polygon class="fil0" points="2869.95,3002.46 2808.01,3002.46 2808.01,3038.55 2869.95,3038.55 "/>
  <polygon class="fil0" points="2993.83,3002.46 2931.89,3002.46 2931.89,3038.55 2993.83,3038.55 "/>
  <polygon class="fil0" points="3117.71,3002.46 3055.77,3002.46 3055.77,3038.55 3117.71,3038.55 "/>
  <path class="fil0" d="M3259.67 3025.66c0,196.91 -78.32,385.75 -217.71,524.98 -139.4,139.24 -328.46,217.46 -525.6,217.46 -197.13,0 -386.19,-78.22 -525.59,-217.46 -139.39,-139.23 -217.71,-328.07 -217.71,-524.98l1486.6 0z"/>
  <path class="fil0" d="M3223.73 3030.4l-472.81 -1407.72c92.53,-31.08 190.3,-43.63 287.7,-36.94 97.4,6.7 192.52,32.5 279.92,75.93 87.4,43.44 165.38,103.67 229.46,177.24 64.09,73.57 113.02,159.03 144.01,251.5 5,14.91 9.55,29.9 13.58,44.91 48.67,182.42 25.93,376.52 -63.58,542.8 -89.51,166.28 -239.08,292.25 -418.28,352.29z"/>
  <path class="fil0" d="M3241.6 3141.66c51.32,0 92.91,-41.55 92.91,-92.8 0,-51.26 -41.59,-92.8 -92.91,-92.8 -51.31,0 -92.91,41.54 -92.91,92.8 0,51.25 41.6,92.8 92.91,92.8z"/>
  <path class="fil1" d="M2296.99 3219.01c-6.85,0 -13.4,2.71 -18.25,7.54 -4.84,4.84 -7.55,11.4 -7.55,18.23 0,6.83 2.72,13.39 7.55,18.23 4.85,4.84 11.41,7.54 18.25,7.54l443.92 0c6.84,0 13.41,-2.71 18.25,-7.54 4.85,-4.84 7.56,-11.4 7.56,-18.23 0,-6.83 -2.72,-13.39 -7.56,-18.23 -4.84,-4.84 -11.41,-7.54 -18.25,-7.54l-443.92 0z"/>
  <polygon class="fil0" points="3133.2,4368.74 3040.78,4372.15 2707.79,3656.87 2792.03,3617.74 "/>
  <polygon class="fil0" points="1899.53,4368.74 1991.96,4372.15 2324.95,3656.87 2240.7,3617.74 "/>
  <polygon class="fil0" points="2900.92,3956.28 2136.98,3956.28 2136.98,4007.84 2900.92,4007.84 "/>
  <path class="fil1" d="M2769.81 1596.4c-3.63,0 -7.2,0.85 -10.45,2.49 -3.24,1.63 -6.05,4 -8.22,6.91 -2.16,2.92 -3.6,6.29 -4.22,9.86 -0.62,3.58 -0.39,7.24 0.67,10.71l19.58 64.11c1.81,5.88 5.87,10.8 11.31,13.69 5.43,2.89 11.8,3.5 17.69,1.72 5.89,-1.8 10.82,-5.85 13.72,-11.29 2.89,-5.42 3.52,-11.77 1.72,-17.66l-19.58 -64.1c-1.46,-4.75 -4.4,-8.92 -8.4,-11.87 -4.01,-2.96 -8.84,-4.56 -13.83,-4.56z"/>
  <path class="fil1" d="M1742.1 3038.55c-6.16,0 -12.07,2.44 -16.42,6.79 -4.36,4.36 -6.8,10.25 -6.8,16.41 0,6.16 2.44,12.06 6.8,16.41 4.36,4.36 10.26,6.8 16.42,6.8l67.1 0c6.16,0 12.08,-2.44 16.43,-6.8 4.36,-4.35 6.81,-10.25 6.81,-16.41 0,-6.15 -2.45,-12.05 -6.81,-16.41 -4.35,-4.35 -10.26,-6.79 -16.43,-6.79l-67.1 0z"/>
  <path class="fil2" d="M2296.99 2868.41l-278.73 0c-1.76,0 -3.46,0.06 -5.17,0.21 -18.21,1.3 -35.26,9.44 -47.7,22.77 -12.44,13.34 -19.38,30.89 -19.4,49.13 -0.02,18.24 6.87,35.81 19.3,49.16 12.42,13.37 29.44,21.54 47.65,22.88 1.75,0.16 3.51,0.2 5.32,0.2l278.73 0c19.16,0 37.55,-7.6 51.1,-21.14 13.55,-13.53 21.17,-31.89 21.17,-51.03 0,-19.14 -7.62,-37.5 -21.17,-51.04 -13.55,-13.53 -31.94,-21.14 -51.1,-21.14l0 0z"/>
  <path class="fil3" d="M1990.18 3007.05c47.49,-6.08 84.85,-65.94 84.85,-138.64l-10.32 0c0,71.1 -37.06,128.9 -82.6,128.9l0 5.78 8.06 3.97z"/>
  <path class="fil3" d="M2090.52 3007.62l0 -10.32c45.54,0 82.59,-57.82 82.59,-128.9l10.33 0c0,76.76 -41.68,139.21 -92.91,139.21z"/>
  <path class="fil3" d="M2198.92 3007.62l0 -10.32c45.53,0 82.58,-57.82 82.58,-128.9l10.33 0c0,76.76 -41.69,139.21 -92.91,139.21z"/>
  <path class="fil2" d="M2802.85 2868.41l-278.73 0c-1.76,0 -3.46,0.06 -5.17,0.21 -18.21,1.3 -35.25,9.44 -47.7,22.77 -12.45,13.34 -19.38,30.89 -19.4,49.13 -0.02,18.24 6.87,35.81 19.29,49.16 12.43,13.37 29.45,21.54 47.65,22.88 1.76,0.16 3.52,0.2 5.33,0.2l278.73 0c19.16,0 37.55,-7.6 51.1,-21.14 13.55,-13.53 21.16,-31.89 21.16,-51.03 0,-19.14 -7.61,-37.5 -21.16,-51.04 -13.55,-13.53 -31.94,-21.14 -51.1,-21.14l0 0z"/>
  <path class="fil3" d="M2496.02 3007.05c47.5,-6.08 84.86,-65.94 84.86,-138.64l-10.32 0c0,71.1 -37.07,128.9 -82.6,128.9l0 5.78 8.05 3.97z"/>
  <path class="fil3" d="M2596.37 3007.62l0 -10.32c45.54,0 82.6,-57.82 82.6,-128.9l10.32 0c0,76.76 -41.67,139.21 -92.91,139.21z"/>
  <path class="fil3" d="M2704.77 3007.62l0 -10.32c45.54,0 82.6,-57.82 82.6,-128.9l10.32 0c0,76.76 -41.68,139.21 -92.91,139.21z"/>
  <path class="fil4" d="M2276.6 2175.26c-36.53,-19.71 -81.69,1.78 -99.89,36.67 -22.14,42.43 -3.8,93.46 22.03,129.74 26.84,37.69 63.25,68.81 81.15,112.38 17.13,40.99 19.16,86.73 5.73,129.08 -13.43,42.35 -41.45,78.58 -79.09,102.24 -16.8,10.61 -1.28,37.4 15.63,26.72 36.91,-23.04 66.12,-56.54 83.89,-96.23 17.76,-39.69 23.29,-83.77 15.86,-126.61 -3.77,-22.22 -10.95,-43.72 -21.31,-63.75 -11.22,-20.43 -24.74,-39.52 -40.3,-56.88 -26.87,-31.76 -60.69,-66.78 -62.37,-110.98 -0.31,-5.73 0.09,-11.47 1.19,-17.11 0.8,-3.93 2,-7.77 3.58,-11.48 3.76,-7.94 9.33,-14.89 16.27,-20.28 6.44,-5.12 14.05,-8.56 22.15,-10.01 6.79,-1.01 13.72,0.11 19.86,3.21 17.54,9.46 33.19,-17.23 15.63,-26.7l0 0z"/>
  <path class="fil4" d="M2742.62 2362.38c-15.56,-5 -32.18,-5.69 -48.1,-1.99 -15.91,3.69 -30.53,11.64 -42.29,22.97 -6.07,6.25 -10.57,13.84 -13.13,22.16 -2.55,8.32 -3.08,17.13 -1.55,25.7 2.95,18.75 14.8,35.4 27.65,48.81 25.16,26.26 60.36,43.23 81.45,73.37 9.35,12.84 15.22,27.88 17.03,43.66 1.09,14.17 -1.52,28.39 -7.56,41.26 -15.73,31.95 -46.97,53.67 -79.91,67.66 -7.69,3.27 -9.4,14.6 -5.56,21.16 2.15,3.46 5.55,5.97 9.49,7 3.94,1.03 8.13,0.52 11.7,-1.46 60.62,-25.74 116.71,-83.39 99.99,-154.22 -8.8,-37.26 -35.75,-63.55 -64.78,-86.42 -14.42,-10.56 -28.03,-22.16 -40.74,-34.72 -10.03,-10.65 -20.46,-25.18 -18.62,-39.62 0.74,-5.02 3.2,-9.63 6.96,-13.04 4.56,-4.16 9.74,-7.6 15.35,-10.19 6.87,-3.29 14.33,-5.19 21.95,-5.58 7.61,-0.4 15.23,0.72 22.41,3.29 3.96,1.05 8.17,0.5 11.74,-1.51 3.55,-2.03 6.19,-5.36 7.32,-9.3 1,-3.95 0.44,-8.14 -1.57,-11.69 -2.02,-3.55 -5.33,-6.17 -9.24,-7.33l0 0z"/>
  <path class="fil4" d="M2506.85 1922.33c-9.23,-7.88 -20.88,-12.35 -33.01,-12.69 -11.51,0.21 -22.69,3.82 -32.15,10.38 -21.35,15.49 -36.46,38.1 -42.6,63.75 -15.65,59.88 4.76,124.41 33.13,177.14 14.34,26.66 31.04,51.96 45.47,78.57 13.92,25.44 24.61,52.52 31.81,80.61 14.69,57.59 16.01,117.78 3.83,175.95 -12.39,57.9 -38.47,115.25 -82.82,155.2 -2.9,2.89 -4.53,6.83 -4.53,10.93 0,4.1 1.63,8.03 4.53,10.94 2.91,2.9 6.84,4.53 10.95,4.53 4.11,0 8.04,-1.63 10.95,-4.53 39.36,-35.46 65.69,-84.11 81.59,-134.13 17.53,-56.49 22.66,-116.1 15.03,-174.75 -3.45,-29.21 -10.11,-57.94 -19.85,-85.7 -10.57,-27.96 -23.76,-54.85 -39.4,-80.32 -29.11,-49.16 -60.09,-98.88 -64.31,-157.41 -2.07,-28.79 1.54,-58.79 19.37,-81.94 -0.98,1.27 0.78,-0.92 0.79,-0.93 1.08,-1.29 2.2,-2.55 3.36,-3.78 2.21,-2.37 4.59,-4.58 7.11,-6.62 -0.53,0.42 -1.9,1.35 0.59,-0.39 1.23,-0.86 2.5,-1.69 3.8,-2.45 1.06,-0.62 2.15,-1.17 3.23,-1.74 0.64,-0.33 1.3,-0.64 1.95,-0.93 -1.5,0.64 -1.42,0.65 0.26,0.02 1.22,-0.38 7.21,-1.67 3.88,-1.25 1.11,-0.14 2.23,-0.21 3.35,-0.22 0.47,-0.01 4.64,0.21 2.61,-0.02 -2.38,-0.26 1.89,0.42 1.91,0.43 1.34,0.33 2.65,0.75 3.93,1.24 -3.22,-1.28 5.28,3.49 3.31,1.97 2.97,2.78 6.88,4.33 10.95,4.33 4.07,0 7.99,-1.55 10.95,-4.33 5.34,-5.34 6.63,-16.72 0,-21.88l0 0z"/>
  <polygon class="fil5" points="1317.74,4246.95 1200.99,4277.89 986.55,3287.87 1227.21,3266.45 "/>
  <polygon class="fil5" points="783.58,4262.16 664.15,4280.19 559.18,3272.7 800.73,3277.65 "/>
  <path class="fil5" d="M722.09 2828.56l11.03 205.62c0.4,7.56 -0.83,15.12 -3.6,22.16 -2.78,7.05 -7.04,13.42 -12.5,18.67 -5.46,5.26 -11.99,9.28 -19.14,11.79 -7.15,2.51 -14.76,3.45 -22.31,2.76l0 0c-12.34,-1.12 -23.9,-6.53 -32.65,-15.3 -8.75,-8.77 -14.14,-20.32 -15.22,-32.66l-19.97 -227.33 -157.25 -533.1 4.77 -342.69 185.85 9.52 81.01 880.55z"/>
  <path class="fil6" d="M822.16 3333.08c-93.09,-32.28 -201.1,-38.63 -324.04,-19.03 17.43,-206.28 27.53,-397.84 19.06,-552.13l633.78 0 -328.8 571.16z"/>
  <path class="fil6" d="M1265.33 3328.32c-95.95,50.69 -234.74,74.97 -395.52,85.67l-200.14 -637.8 490.82 -9.52 104.84 561.64z"/>
  <path class="fil6" d="M1512.39 4350.45l-345.28 12.77c-44.22,1.64 -46.56,-36.31 -38.21,-79.71l40.88 -116.59c92.03,90.06 100.7,95.09 140.15,-33.02l120.41 94.99 89.13 15.26c12.48,2.14 23.8,8.61 31.95,18.3 8.15,9.67 12.62,21.92 12.6,34.57l0 0c-0.03,13.84 -5.42,27.14 -15.04,37.1 -9.63,9.96 -22.74,15.81 -36.59,16.32l0 0z"/>
  <path class="fil6" d="M989.46 4350.45l-345.28 12.77c-44.23,1.64 -46.56,-36.31 -38.22,-79.71l40.88 -116.59c92.03,90.06 100.7,95.09 140.15,-33.02l120.4 94.99 89.13 15.26c12.47,2.14 23.79,8.61 31.95,18.3 8.15,9.67 12.61,21.92 12.59,34.57l0 0c-0.02,13.84 -5.41,27.14 -15.03,37.1 -9.63,9.96 -22.75,15.81 -36.59,16.32z"/>
  <path class="fil5" d="M1069.95 1433.96c102.64,0 185.84,-83.11 185.84,-185.63 0,-102.52 -83.2,-185.63 -185.84,-185.63 -102.64,0 -185.85,83.11 -185.85,185.63 0,102.52 83.21,185.63 185.85,185.63z"/>
  <polygon class="fil5" points="974.64,1576.76 755.44,1510.12 903.17,1291.17 1069.95,1362.57 "/>
  <path class="fil7" d="M1179.55 2819.03c-225.34,50.6 -475.48,30.53 -690.97,-28.56 51.6,-287.41 26.69,-596.12 -23.83,-847.22 -39.54,-196.54 64.77,-361.47 238.26,-442.65 37.3,-13.36 76.09,-22.09 115.52,-25.99 121.71,-10.77 228.79,80.38 241.49,201.76l119.53 1142.66z"/>
  <polygon class="fil7" points="593.43,2038.45 436.17,2019.41 483.83,1771.9 593.43,1771.9 "/>
  <path class="fil6" d="M1067.35 1277.73l-28.47 -12.64c-6.45,-2.85 -13.44,-4.27 -20.5,-4.16 -7.06,0.12 -14,1.76 -20.36,4.83 -6.35,3.06 -11.97,7.46 -16.44,12.91 -4.48,5.44 -7.73,11.8 -9.51,18.62l0 0 -39.68 71.6 -98.82 -15.62 3.45 -151.58c4.5,-28.64 14.84,-56.07 30.37,-80.56 15.54,-24.5 35.94,-45.54 59.95,-61.84 24.01,-16.29 51.11,-27.51 79.63,-32.92 28.51,-5.41 57.84,-4.93 86.17,1.44l2.69 0.61c48.25,10.91 110.87,46.28 143.58,83.42l60.91 69.2c2.89,3.28 4.83,7.28 5.59,11.6 0.77,4.3 0.33,8.73 -1.24,12.8 -1.58,4.08 -4.25,7.65 -7.71,10.31 -3.46,2.67 -7.59,4.34 -11.95,4.83l-83.31 9.18 -134.35 47.99z"/>
  <path class="fil4" d="M1683.78 2543.67l-106.72 93.49c-1.54,1.35 -3.55,2.04 -5.61,1.9 -2.04,-0.13 -3.95,-1.08 -5.31,-2.61 -1.35,-1.54 -2.04,-3.56 -1.91,-5.6 0.13,-2.04 1.08,-3.95 2.62,-5.31l106.71 -93.49 -20.42 -23.26 -106.71 93.49c-1.55,1.35 -3.57,2.04 -5.61,1.9 -2.05,-0.13 -3.96,-1.07 -5.32,-2.61 -1.34,-1.54 -2.04,-3.55 -1.9,-5.6 0.13,-2.04 1.07,-3.95 2.61,-5.31l106.72 -93.49 -20.42 -23.26 -106.71 93.49c-0.77,0.67 -1.66,1.19 -2.62,1.52 -0.97,0.32 -1.99,0.46 -3,0.4 -1.01,-0.07 -2.01,-0.33 -2.92,-0.78 -0.91,-0.45 -1.72,-1.08 -2.4,-1.84 -0.67,-0.76 -1.19,-1.65 -1.51,-2.61 -0.33,-0.97 -0.46,-1.98 -0.4,-2.99 0.07,-1.01 0.33,-2.01 0.78,-2.92 0.45,-0.91 1.08,-1.72 1.84,-2.39l106.71 -93.49 -25.53 -29.07 -150.8 132.13c-13.47,11.8 -22.46,27.86 -25.49,45.49 -3.02,17.63 0.11,35.76 8.87,51.37l-455.3 398.9 40.85 46.51 455.01 -398.64c13.87,10.94 31.15,16.69 48.83,16.23 17.68,-0.45 34.64,-7.07 47.93,-18.71l152.64 -133.73 -25.53 -29.07z"/>
  <path class="fil5" d="M1165.26 2828.56l11.03 205.62c0.4,7.56 -0.83,15.12 -3.6,22.16 -2.78,7.05 -7.05,13.42 -12.51,18.67 -5.45,5.26 -11.98,9.28 -19.13,11.79 -7.16,2.51 -14.77,3.45 -22.32,2.76l0 0c-12.34,-1.12 -23.89,-6.53 -32.65,-15.3 -8.75,-8.77 -14.13,-20.32 -15.22,-32.66l-19.96 -227.33 -157.26 -533.1 4.77 -342.69 185.85 9.52 81.01 880.55z"/>
  <path class="fil7" d="M1098.55 2000.37c-56.55,-54.19 -131.19,-56.17 -214.44,-33.32l0 -255.8c0,-30.62 12.18,-59.99 33.86,-81.65 21.68,-21.65 51.08,-33.82 81.74,-33.82l0 0c14.11,0 28.08,2.82 41.08,8.29 13,5.47 24.78,13.49 34.64,23.56 9.86,10.09 17.6,22.04 22.77,35.14 5.17,13.12 7.66,27.13 7.33,41.22l-6.98 296.36z"/>
  <g>
  </g>
  <g style="clip-path:url(#id0)">
   <g>
    <path class="fil8" d="M5487.85 1184.59c0.88,15.06 0.01,30.18 -2.64,45.04 -9.91,45.98 -51.86,77.54 -92.47,101.51 -40.61,23.95 -85.24,46.62 -109.38,87.05 -29.11,48.85 -19.83,114.52 14.33,160.16 34.16,45.62 88.31,72.8 144.04,84.13 101.64,20.94 212.96,-8.46 289.17,-78.75 76.21,-70.28 114.44,-180.09 95.75,-282.1 -41.36,5.79 -78.2,-30.64 -91.59,-70.13 -13.39,-39.5 -10.61,-82.31 -15.82,-123.73 -0.38,-7 -2.5,-13.8 -6.15,-19.8 -5.8,-8.01 -16.06,-11.29 -25.63,-13.9 -47.8,-13.12 -128.23,-41.82 -177.76,-30.84 -44.62,10.2 -22.61,103.94 -21.86,141.36z"/>
    <path class="fil9" d="M5487.85 1184.59c0.88,15.06 0.01,30.18 -2.64,45.04 -9.91,45.98 -51.86,77.54 -92.47,101.51 -40.61,23.95 -85.24,46.62 -109.38,87.05 -29.11,48.85 -19.83,114.52 14.33,160.16 34.16,45.62 88.31,72.8 144.04,84.13 101.64,20.94 212.96,-8.46 289.17,-78.75 76.21,-70.28 114.44,-180.09 95.75,-282.1 -41.36,5.79 -78.2,-30.64 -91.59,-70.13 -13.39,-39.5 -10.61,-82.31 -15.82,-123.73 -0.38,-7 -2.5,-13.8 -6.15,-19.8 -5.8,-8.01 -16.06,-11.29 -25.63,-13.9 -47.8,-13.12 -128.23,-41.82 -177.76,-30.84 -44.62,10.2 -22.61,103.94 -21.86,141.36z"/>
    <path class="fil8" d="M5430.09 3375.65c-47.39,24.75 -96.7,45.64 -147.47,62.46 -27.8,8.76 -56.07,15.96 -84.69,21.57 -2.03,-38.05 0.06,-76.22 6.2,-113.83 3.86,-21.62 9.56,-43.06 11.05,-64.98 2.11,-31.64 -4.68,-63.25 -19.58,-91.26 55.23,-7.52 107.7,-19.8 163.18,-16.19l3.52 0.25c6.59,0.17 13.13,1.39 19.33,3.61 8.54,4.13 15.79,10.49 20.98,18.41 2.85,3.89 5.49,7.94 7.89,12.12 15.67,27.02 21.62,58.2 22.85,90.32 0.58,25.88 -0.51,51.77 -3.27,77.51l0 0z"/>
    <path class="fil8" d="M5719.2 3253.79c-17.65,4.13 -34.97,8.83 -51.95,14.11 -45.81,14.77 -90.39,33.09 -133.33,54.78 -2.79,-13.48 -4.16,-27.21 -4.07,-40.98 25.32,-17.42 53.87,-29.59 83.99,-35.77 30.11,-6.18 61.16,-6.26 91.3,-0.21 4.02,0.49 7.86,2.02 11.1,4.45 1.18,1.04 2.19,2.27 2.98,3.61l0 0z"/>
    <path class="fil0" d="M5804.44 3003.96c-3.37,32.36 -8.33,64.83 -19.84,95.27 -12.44,32.67 -32.67,64.34 -30.09,99.23 1.14,15.15 6.3,31.58 7.04,46.57 -14.28,2.6 -28.37,5.54 -42.29,8.81 -17.65,4.13 -34.98,8.82 -51.96,14.1 -45.8,14.77 -90.38,33.09 -133.33,54.78 -8.47,4.16 -16.86,8.37 -25.23,12.62 -3.47,-0.44 -6.9,-0.99 -10.36,-1.63 -24.8,-4.51 -50.87,-15.59 -64.91,-35.38 -3.21,-4.56 -5.74,-9.56 -7.49,-14.85 -8.08,-24.1 0.35,-54.15 -16.46,-73.24l-0.79 0.69 -0.6 0.4c-9.2,8.33 -19.32,15.6 -30.14,21.68l0 0c-24.65,13.92 -51.95,22.51 -80.13,25.23 -28.19,2.71 -56.64,-0.53 -83.5,-9.5 -10.64,-3.61 -20.91,-8.22 -30.68,-13.75 -22.72,-12.92 -44.63,-34.65 -42.85,-60.58 1,-14.46 9.28,-28.31 7.04,-42.62 -1.63,-10.24 -8.38,-18.76 -13.43,-27.81 -33.17,-59.39 6.39,-135.75 -14.44,-200.29 -0.49,-1.54 -1.04,-3.07 -1.58,-4.55 -1.54,-4.21 -3.27,-8.27 -4.96,-12.33 -4.27,-9.45 -9.03,-18.76 -12.8,-28.46 -3.13,-8.16 -5.62,-16.54 -7.43,-25.09 -4.68,-24.82 -6.35,-50.12 -4.95,-75.33 0,-66.48 11.89,-134.52 28.85,-198.56 3.03,-11.39 6.4,-27.47 10.86,-44.99 4.35,-18.46 10.23,-36.54 17.56,-54.05 9.91,-22.76 23.4,-40.93 41.84,-45.23 27.77,-6.48 70.22,7.22 98.38,10.59l111.32 13.25 222.58 26.58c38.43,4.6 78.79,9.9 110.48,31.47 2.08,1.44 4.11,2.92 6.15,4.51 8.37,6.59 15.87,14.21 22.31,22.67 2.29,2.92 4.47,5.99 6.55,9.11 7.22,11.03 13.37,22.74 18.34,34.94 27.62,66.21 28.26,140.1 28.47,211.82 0,74.84 0.25,149.61 -7.49,223.91z"/>
    <path class="fil9" d="M5377.72 3233.31c-6.7,-25.74 -20.83,-63 -22.91,-73.14 -6.98,-34.04 -12.05,-68.45 -15.17,-103.05 -5.5,-61.66 -15.42,-148.48 6.39,-207.12 20.48,10.89 38.48,41.72 47.95,62.75 34.31,76.27 -4.31,169.91 27.92,247.06 2.41,4.62 3.91,9.67 4.41,14.85 -0.56,6.58 -2.93,12.88 -6.84,18.21l-10.86 18.01 -30.89 22.42z"/>
    <path class="fil8" d="M6091.83 878.78c36.5,-59.39 86.47,-117.79 83.35,-187.23 -1.14,-24.75 -9.27,-48.95 -15.47,-73.2 -17.76,-70.19 -18.93,-143.54 -3.42,-214.25 61.31,-9.84 124.07,4.2 175.32,39.2 16.21,11.18 31.59,25.09 38.73,43.45 6.6,16.93 5.51,35.78 4.31,53.9 -2.73,41.62 -6.44,86.02 -32.13,118.78 -7.98,10.25 -17.8,18.91 -25.58,29.25 -11.36,14.85 -18,32.96 -24.49,50.63l-84.29 228.9c-42.54,115.36 -88.66,236.02 -182.37,315.85 -2.28,1.93 -69.42,-93.24 -74.97,-102.79 -22.46,-39.15 -12.64,-55.69 14.53,-88.45 53.6,-64.79 82.71,-142.93 126.49,-214.05z"/>
    <path class="fil10" d="M5125.84 2829.8c-0.3,17.08 -1.73,34.13 -4.32,51.02 -0.89,6.24 -1.94,12.42 -3.17,18.61 -16.91,88.09 -59,171.88 -88.46,257.7 -38.82,113.29 -55.88,211.58 -69.41,324.07 -39.02,0 -78.1,-0.84 -116.72,-2.87l-1.19 0c-13.19,-0.69 -26.43,-1.48 -39.67,-2.48 11.95,-104.92 -9.92,-214.99 11.45,-320.02 8.63,-42.26 23.36,-83.29 32.23,-125.37 2.74,-12.38 4.81,-24.91 6.2,-37.51 1.23,-11.97 1.88,-24.4 7.29,-35.19 0.5,-1.04 1.06,-2.05 1.69,-3.02 4.74,-7.46 10.64,-14.14 17.46,-19.79 60.41,-52.88 134.31,-88.05 213.5,-101.61 11.26,-1.53 22.21,-2.82 33.13,-3.55z"/>
    <path class="fil9" d="M5125.84 2829.8c-0.3,17.08 -1.73,34.13 -4.32,51.02 -0.89,6.24 -1.94,12.42 -3.17,18.61 -16.91,88.09 -59,171.88 -88.46,257.7 -38.82,113.29 -55.88,211.58 -69.41,324.07 -39.02,0 -78.1,-0.84 -116.72,-2.87l-1.19 0c-13.19,-0.69 -26.43,-1.48 -39.67,-2.48 11.95,-104.92 -9.92,-214.99 11.45,-320.02 8.63,-42.26 23.36,-83.29 32.23,-125.37 2.74,-12.38 4.81,-24.91 6.2,-37.51 1.23,-11.97 1.88,-24.4 7.29,-35.19 0.5,-1.04 1.06,-2.05 1.69,-3.02 4.74,-7.46 10.64,-14.14 17.46,-19.79 60.41,-52.88 134.31,-88.05 213.5,-101.61 11.26,-1.53 22.21,-2.82 33.13,-3.55z"/>
    <path class="fil10" d="M4874.45 3055.33c-0.8,27.51 -3.07,54.95 -6.79,82.21 -13.24,111.41 -15.72,227.67 -24.79,340.75 -13.19,-0.69 -26.43,-1.48 -39.68,-2.47 -60.29,-4.11 -120.38,-10.45 -179.59,-19.11 4.56,-25.47 9.16,-50.94 13.78,-76.41 5.66,-31.23 11.3,-62.76 9.67,-94.43 -1.54,-29.95 -9.57,-59.09 -15.96,-88.45 -13.64,-62.85 -21.27,-130.66 -43.74,-189.95 -11.71,-33.26 -30.41,-63.63 -54.84,-89.08 92.92,-36.44 182.22,-38.51 282.03,-34.65 7.08,-0.4 14.13,1.33 20.23,4.95 4.74,4.09 8.24,9.39 10.17,15.34 15,36.02 24.41,74.1 27.91,112.95 1.19,12.75 1.72,25.55 1.58,38.35l0 0z"/>
    <path class="fil8" d="M5622.92 1159.05c106.79,0 193.37,-86.42 193.37,-193.02 0,-106.6 -86.58,-193.02 -193.37,-193.02 -106.8,0 -193.38,86.42 -193.38,193.02 0,106.6 86.58,193.02 193.38,193.02z"/>
    <path class="fil11" d="M5663.13 1417.15c24.79,-42.22 46.51,-94.92 94.21,-106.65 26.92,-6.68 54.93,2.43 81.17,11.39 7.6,1.8 14.5,5.79 19.84,11.48 3.87,6.14 5.95,13.24 6,20.5 8.31,87.24 8.03,175.11 -0.84,262.3 -6.3,61.72 -16.91,123.14 -18.79,185.15 -2.64,85.97 11.55,171.93 6.89,257.81 -3.52,65.08 -17.81,129.02 -31.98,192.62l-59.5 266.27c-1.07,8.24 -4.38,16.03 -9.57,22.52 -5.02,4.59 -11.02,7.98 -17.55,9.89 -86.12,30.39 -177.68,42.41 -268.75,35.3 -91.07,-7.12 -179.63,-33.22 -259.96,-76.63 -21.48,-11.77 -42.89,-25.39 -56.87,-45.48 -19.84,-28.51 -21.67,-66.23 -15.23,-100.37 6.45,-34.15 20.39,-66.36 29.75,-99.88 14.48,-51.96 17.9,-106.2 21.17,-160.04 4.37,-70.88 8.73,-142.2 1.14,-212.81 -5.21,-48.66 -16.06,-96.56 -24.25,-144.82 -12.05,-72.73 -19.04,-146.2 -20.92,-219.89 -1.24,-44 0.79,-92.85 31.28,-124.57 14.88,-15.44 34.71,-24.74 54.89,-32.27 33.87,-12.47 71.71,-19.8 105.92,-8.41 34.21,11.39 61.78,47.21 53.69,82.31 -3.72,16.28 -14.28,30.54 -16.86,47.07 -3.43,21.88 8.18,43.89 24.79,58.7 89.35,80.57 225.76,-55.03 270.34,-131.45z"/>
    <path class="fil0" d="M5670.22 1219.93c27.13,-9.98 56.62,-11.7 84.73,-4.96 17.91,4.25 37.24,11.78 53.75,3.81 6,-2.87 10.96,-7.57 17,-10.24 16.37,-7.18 37.58,1.63 52.07,-8.81 9.12,-6.59 12.1,-18.56 15.17,-29.45 14.89,-51.97 45.4,-98.13 87.41,-132.25 -5.2,37.96 -8.97,81.17 16.17,110.17 11.46,13.16 27.52,21.43 43.79,27.86 23.35,9.26 48.99,15.39 73.63,10.34 24.64,-5.05 47.7,-23.65 51.61,-48.44 -0.84,37.26 -36.39,63.29 -46.36,99.28 -3.77,13.46 -3.43,27.76 -6.05,41.53 -6.7,35.13 -31.84,63.34 -53.8,91.66 -70.16,91.05 -114.97,198.99 -129.91,312.89 -1.02,13.51 -3.85,26.83 -8.43,39.59 -4.86,9.78 -10.36,19.24 -16.46,28.31 -36.35,61.27 -25.14,138.58 -12.8,208.56 19.29,109.62 38.52,217.02 69.76,323.87 5.35,18.27 11.4,37.32 25.04,50.63 -4.31,43.21 -48,62.91 -87.27,81.56 -38.77,18.46 -74.54,42.63 -106.11,71.72 -11.31,10.4 -22.46,22.07 -26.58,36.87 -3.87,13.91 -1.09,29.2 -6.04,42.71 -4.96,13.52 -24.8,23.22 -33.52,11.83 -10.91,-40.73 7.74,-83.34 6.89,-125.5 -0.59,-28.47 -9.91,-56.13 -11.26,-84.59 -1.29,-32.22 8.23,-63.85 18.35,-94.43 28.16,-85.17 62.18,-169.55 71.95,-258.69 9.77,-89.13 -8.47,-186.49 -71.84,-250.09 -75.23,-75.82 -116.97,-178.62 -197.6,-248.25 -12.78,-11.04 -27.27,-24.74 -25.14,-41.47 1.47,-7.37 4.72,-14.27 9.47,-20.09 27.68,-39 64.47,-70.83 94.21,-108.14 29.75,-37.32 53.55,-80.28 48.15,-127.79z"/>
    <path class="fil0" d="M5405.49 1299.76c-4.95,4.95 -8.38,11.78 -14.13,16.03 -6.71,4.14 -14.38,6.5 -22.26,6.88 -29.18,4.42 -58.61,7.05 -88.1,7.87 -24.8,0 -50.53,-2.17 -74.38,4.61 -33.27,9.4 -59.85,35.63 -76.51,65.82 -16.66,30.2 -24.54,64.35 -30.93,98.35 -14.1,74.91 -21.65,150.9 -22.56,227.12 40.86,-32.54 77.29,-70.28 108.34,-112.26 23.8,-32.21 45.37,-67.84 79.33,-89.37 15.62,-9.9 33.17,-16.43 48.89,-26.09 32.78,-20.13 55.48,-52.71 77.3,-84.13 16.06,-23.32 62.53,-68.84 66.2,-96.75 3.12,-26.68 -33.82,-39.69 -51.17,-18.07z"/>
    <path class="fil0" d="M5578.24 833.89c6.12,3.67 11.98,7.75 17.55,12.22 33.67,23.46 78.74,19.1 119.45,13.76 12.49,-1.58 25.33,-3.37 36.05,-9.9 17.21,-10.59 25.29,-32.37 23.6,-52.51 -1.69,-20.15 -11.84,-38.7 -24.25,-54.44 -16.42,-20.83 -36.9,-38.11 -60.22,-50.8 -23.3,-12.69 -48.96,-20.53 -75.39,-23.04 -13.69,-1.79 -27.61,-0.32 -40.61,4.3 -16.02,6.58 -28.07,20.15 -42.85,29.2 -43.58,26.73 -110.72,14.85 -138.83,57.51 -20.58,31.48 -5.9,74.24 -15.62,110.41 -7.23,27.02 -28.11,51.63 -24.1,79.19 2.24,14.85 11.56,27.81 19,41.08 17.08,30.49 24.98,65.26 22.76,100.12 19.09,13.46 45.71,-7.47 51.01,-30.14 5.31,-22.67 -0.79,-46.81 3.72,-69.68 7.99,-40.14 43.48,-69.59 59.5,-106.41 11.5,-26.38 30.24,-70.92 69.22,-50.88z"/>
    <path class="fil10" d="M5109.38 1273.23c-1.49,9.01 -2.43,18.96 2.58,26.58 9.91,14.85 32.62,9.49 50.47,11.73 27.82,3.42 48.34,29.7 53.75,57.32 5.4,27.62 -1.04,55.72 -8.09,82.84 -15.93,61.47 -34.9,122.07 -56.92,181.79 -59.21,-6.98 -121.52,-29.7 -152.96,-80.13 -28.56,-45.88 -25.64,-104.33 -43.79,-155.21 -12.74,-35.83 -35.6,-67.01 -58.21,-97.6 36.35,4.56 62.33,-36.91 64.46,-73.44 2.14,-36.53 -9.37,-73.6 -1.53,-109.28 1.83,-8.46 145.08,18.21 159.01,27.87 40.27,27.86 -2.42,88.83 -8.77,127.54z"/>
    <path class="fil9" d="M5109.38 1273.23c-1.49,9.01 -2.43,18.96 2.58,26.58 9.91,14.85 32.62,9.49 50.47,11.73 27.82,3.42 48.34,29.7 53.75,57.32 5.4,27.62 -1.04,55.72 -8.09,82.84 -15.93,61.47 -34.9,122.07 -56.92,181.79 -59.21,-6.98 -121.52,-29.7 -152.96,-80.13 -28.56,-45.88 -25.64,-104.33 -43.79,-155.21 -12.74,-35.83 -35.6,-67.01 -58.21,-97.6 36.35,4.56 62.33,-36.91 64.46,-73.44 2.14,-36.53 -9.37,-73.6 -1.53,-109.28 1.83,-8.46 145.08,18.21 159.01,27.87 40.27,27.86 -2.42,88.83 -8.77,127.54z"/>
    <path class="fil10" d="M5077.49 1213.49c106.79,0 193.38,-86.42 193.38,-193.02 0,-106.6 -86.59,-193.02 -193.38,-193.02 -106.8,0 -193.38,86.42 -193.38,193.02 0,106.6 86.58,193.02 193.38,193.02z"/>
    <path class="fil0" d="M5017.94 1245.51c7.05,-10.99 -4.95,-26.33 0.54,-38.16 3.28,-7.13 11.56,-10.2 17.96,-14.85 8.02,-6.51 14.42,-14.8 18.69,-24.2 30.11,-57.74 39.22,-124.12 25.79,-187.82 -4.56,-21.38 -8.62,-49.79 10.96,-59.39 5.43,-2.42 11.38,-3.44 17.3,-2.97 35.31,1.14 69.42,24.74 103.68,16.38 11.7,-3.18 22.14,-9.84 29.94,-19.1 7.8,-9.26 12.58,-20.68 13.7,-32.72 2.23,-31.97 -21.77,-59.39 -45.37,-80.92 -42.49,-39 -107.26,-47.66 -164.97,-48.6l-107.35 -1.78c-34.36,-0.6 -72.89,0.49 -96.79,25.09 -34.42,35.38 -17.11,93.29 -22.06,142.34 -4.22,39.14 -23.84,75.01 -54.54,99.73 -22.27,17.71 -52.9,34.64 -52.51,62.95 0,9.9 4.27,18.91 6.99,28.26 10.95,37.02 0.5,77.95 -20.54,110.37 -21.02,32.42 -51.76,57.36 -83.64,79.19 -17.06,11.63 -34.71,22.82 -48.2,38.6 -14.79,18.23 -23.56,40.59 -25.14,63.99 -2.12,17.89 1.57,35.98 10.51,51.63 20.98,33.46 71.3,38.36 105.76,18.96 34.46,-19.4 55.48,-56.13 69.42,-93.05 8.33,-21.92 16.81,-47.02 38.13,-56.87 26.97,-12.52 58.51,7.28 76.06,31.29 17.55,24 28.36,53.3 50.82,72.8 35.21,30.58 95.11,25.64 124.85,-10.3 21.27,-25.79 25.99,-61.46 24.8,-94.88 -0.6,-27.2 -9.22,-53.63 -24.8,-75.97z"/>
    <path class="fil0" d="M5087.36 1497.08c-22.06,4.7 -45.12,-5.69 -61.54,-21.23 -16.42,-15.54 -27.47,-35.58 -38.98,-54.99 -29.16,-48.93 -62.59,-95.2 -99.9,-138.28 -32.53,-37.47 -77.8,-75.52 -126.09,-63.94 -16.18,4.65 -31.17,12.67 -44.03,23.51 -42.58,33.65 -75.91,77.54 -96.87,127.55 -20.96,50.02 -28.86,104.52 -22.97,158.42 3.77,31.52 12.35,62.36 15.92,94.03 2.4,26.12 3.1,52.35 2.08,78.55 -1.34,79.78 -4.06,164.17 -47.16,231.37 -66.79,103.94 -102.54,228.06 -151.58,341.49 -26.47,61.33 -42.35,126.6 -57.91,191.54 -9.22,38.54 -18.43,77.06 -27.62,115.56l-60 251.91c-6.2,25.98 -12.39,53.21 -5.85,79.19 9.92,38.8 46.47,65.92 84.99,76.96 38.52,11.04 79.33,9.16 119.35,9.5 76.55,0.75 153.7,10.25 225.55,36.77 20.52,7.57 41,16.63 62.87,18.41 21.87,1.78 43.63,-3.91 64.1,-11.83 55.89,-21.58 103.78,-59.39 155.25,-89.93 32.15,-19.33 66.01,-35.69 101.16,-48.85 17.65,-6.58 36.59,-12.81 48.74,-27.22 9.16,-10.84 13.28,-24.99 16.31,-38.85 16.76,-78 5.5,-158.82 0,-238.41 -5.51,-79.58 -53.16,-163.67 -13.74,-233.05 7.93,-14.01 17.4,-27.47 21.46,-43.01 5.36,-20.29 0.85,-42.12 5.36,-62.6 3.32,-15.14 11.31,-28.76 16.76,-43.26 9.52,-25.53 10.8,-53.36 10.7,-80.62 -0.22,-59.88 -6.53,-119.57 -18.84,-178.17 -15.62,-74.24 36.05,-147.64 65.65,-217.77 10.61,-25.08 25.63,-48.8 30.04,-75.67 3.97,-24.25 -1.14,-48.95 -4.96,-73.25 -5.69,-37.66 -8.02,-75.75 -6.94,-113.83 0.94,-34.15 4.56,-68.94 -3.62,-102.15 -8.18,-33.21 -31.54,-65.42 -65.11,-72.26 -3.76,-1.09 -7.72,-1.35 -11.6,-0.75 -3.88,0.61 -7.56,2.06 -10.81,4.27 -3.87,3.8 -6.6,8.6 -7.88,13.85 -10.91,33.36 -8.78,69.29 -14.88,103.94 -6.1,34.64 -13.24,65.78 -47.45,73.1z"/>
    <path class="fil8" d="M4619.44 1709.65c2.03,-13.71 -4.37,-31.92 -18.25,-31.42 -12.8,0.49 -18.49,16.48 -18.45,29.29 0.06,12.82 1.79,27.52 -7.29,36.52 -8.03,7.97 -21.31,7.72 -30.64,14.21 -3.29,2.34 -5.97,5.45 -7.8,9.04 -1.84,3.58 -2.79,7.57 -2.76,11.6 0,6.88 3.12,13.47 3.33,20.35 0.21,6.87 -4.41,14.84 -11.26,14.4 -3.51,5.89 -4.98,12.77 -4.16,19.57 0.82,6.8 3.87,13.15 8.68,18.04 3.57,3.46 8.22,6.44 9.42,11.28 0.38,3.4 0.1,6.85 -0.79,10.14 -2.09,13.62 7.33,28.86 21.07,30.34 -7.68,5.49 -6.15,18.36 0.89,24.74 7.04,6.39 17.15,7.62 26.62,7.62 21.5,-0.11 42.75,-4.51 62.53,-12.91 6.77,-2.23 12.76,-6.35 17.25,-11.88 2.08,-2.84 3.09,-6.35 2.82,-9.86 -0.26,-3.52 -1.77,-6.83 -4.25,-9.34 9.62,1.58 21.17,2.48 27.47,-4.95 8.77,-10.39 -0.65,-25.79 -9.92,-35.83 3.85,-0.57 7.44,-2.26 10.34,-4.85 2.89,-2.59 4.95,-5.98 5.94,-9.73 0.99,-3.76 0.84,-7.72 -0.41,-11.39 -1.25,-3.68 -3.57,-6.9 -6.64,-9.28 -3.17,-2.33 -7.48,-4.36 -7.93,-8.26 -0.44,-3.92 2.88,-6.44 4.27,-9.9 3.18,-7.77 -4.06,-15.69 -11.05,-20.39 -16.56,-10.99 -40.96,-10.79 -55.69,-21.88 -14.72,-11.08 -5.45,-30.44 -3.31,-45.29z"/>
    <path class="fil0" d="M5642.36 958.66c-12.02,1.21 -24.1,1.48 -36.15,0.84 -2.05,-0.22 -4.12,0.37 -5.74,1.65 -1.62,1.27 -2.68,3.13 -2.94,5.18l-23.06 172.63c-1.78,12.53 -6.92,24.35 -14.88,34.19 -6.56,7.84 -11.44,16.94 -14.33,26.74 -2.89,9.8 -3.73,20.09 -2.48,30.22l0 293.25c0,0 -1.48,39.1 28.61,39.1 36.02,4.52 72.47,4.52 108.49,0 0,0 24.1,-4.55 24.1,-40.63l0 -288.73c1.84,-10.08 1.47,-20.43 -1.1,-30.34 -2.57,-9.91 -7.27,-19.15 -13.77,-27.07 -7.69,-9.88 -12.67,-21.6 -14.42,-33.99l-23.95 -176.24c-0.27,-1.98 -1.29,-3.79 -2.85,-5.05 -1.56,-1.26 -3.54,-1.88 -5.53,-1.73l0 0z"/>
    <path class="fil9" d="M5642.36 958.66c-12.02,1.21 -24.1,1.48 -36.15,0.84 -2.05,-0.22 -4.12,0.37 -5.74,1.65 -1.62,1.27 -2.68,3.13 -2.94,5.18l-23.06 172.63c-1.78,12.53 -6.92,24.35 -14.88,34.19 -6.56,7.84 -11.44,16.94 -14.33,26.74 -2.89,9.8 -3.73,20.09 -2.48,30.22l0 293.25c0,0 -1.48,39.1 28.61,39.1 36.02,4.52 72.47,4.52 108.49,0 0,0 24.1,-4.55 24.1,-40.63l0 -288.73c1.84,-10.08 1.47,-20.43 -1.1,-30.34 -2.57,-9.91 -7.27,-19.15 -13.77,-27.07 -7.69,-9.88 -12.67,-21.6 -14.42,-33.99l-23.95 -176.24c-0.27,-1.98 -1.29,-3.79 -2.85,-5.05 -1.56,-1.26 -3.54,-1.88 -5.53,-1.73l0 0z"/>
    <path class="fil1" d="M5642.5 1235.37l-36.54 0c-30.26,0 -54.79,24.49 -54.79,54.69l0 137.24c0,30.2 24.53,54.68 54.79,54.68l36.54 0c30.25,0 54.78,-24.49 54.78,-54.68l0 -137.24c0,-30.2 -24.53,-54.69 -54.78,-54.69z"/>
    <path class="fil0" d="M6133.59 212.71c-10.61,5.81 -21.64,10.78 -33.03,14.85 -1.97,0.59 -3.64,1.92 -4.65,3.71 -1,1.79 -1.28,3.91 -0.76,5.89l45.32 168.27c3.24,12.21 3.1,25.08 -0.4,37.22 -3.06,9.76 -4.06,20.03 -2.95,30.19 1.11,10.16 4.3,19.98 9.4,28.85l113.15 270.62c0,0 13.68,36.62 41.5,25.04 35.02,-9.7 68.67,-23.76 100.15,-41.87 0,0 20.48,-13.46 6.59,-46.72l-111.41 -266.47c-2.19,-10 -6.53,-19.41 -12.72,-27.58 -6.19,-8.17 -14.09,-14.9 -23.13,-19.73 -10.9,-6.16 -20.01,-15.05 -26.43,-25.79l-90.09 -153.42c-1.02,-1.78 -2.69,-3.09 -4.66,-3.66 -1.97,-0.57 -4.08,-0.36 -5.89,0.59z"/>
    <path class="fil1" d="M6240.56 468.07l-33.73 14.05c-27.92,11.63 -41.12,43.66 -29.47,71.53l52.95 126.66c11.65,27.87 43.74,41.04 71.67,29.41l33.72 -14.05c27.92,-11.63 41.12,-43.66 29.46,-71.53l-52.94 -126.66c-11.65,-27.87 -43.74,-41.04 -71.67,-29.41z"/>
    <path class="fil10" d="M4742.11 1250.62c-53.3,21.92 -74.38,90.12 -61.88,146.25 12.49,56.12 50.12,102.89 86.81,147.38l102.84 125.22c28.41,34.64 59.5,71.11 102.84,83.19 63.37,17.67 126.74,-22.61 181.53,-59.05 163.54,-108.77 338.37,-199.64 521.43,-271.01 17.9,-6.93 36.24,-13.96 50.97,-26.33 30.54,-25.64 39.12,-72.9 22.11,-108.89 -17,-35.97 -56.62,-59.39 -96.53,-59.68 -39.91,-0.3 -78.74,20.79 -102.74,52.66 -11.45,15.2 -19.83,32.57 -30.89,48.01 -27.97,38.8 -71.6,62.81 -114.29,84.48 -102.94,52.42 -208.9,98.7 -317.34,138.57 -19.83,7.22 -42.2,14.1 -60.89,4.55 -11.46,-5.89 -19.19,-17.03 -26.13,-27.91 -31.63,-49.7 -56.79,-103.22 -74.87,-159.27 -13.54,-42.06 -24.49,-87.89 -57.02,-117.78 -46.11,-42.37 -129.61,-32.23 -164.18,19.79 0,0 -40.52,59.14 -15.72,83.88 24.79,24.74 53.95,-104.07 53.95,-104.07z"/>
    <path class="fil10" d="M7522.97 1045.82c7.24,19.25 7.43,40.33 6.39,60.87 -1.29,25.05 -7.58,54.44 -30.89,64 -15.17,6.09 -33.92,1.48 -47.4,10.69 -16.36,11.09 -15.57,34.94 -13.04,54.44 6.99,53.6 14.88,109.18 44.13,154.51 15.72,24.3 36.99,44.55 58.56,63.89 42.98,38.71 90.14,76.51 146.62,89.44 9.2,2.59 18.88,2.99 28.26,1.19 9.25,-2.85 17.65,-7.96 24.44,-14.85 32.73,-29.99 49.59,-72.8 71.4,-111.61 15.42,-27.76 33.82,-54.44 42.49,-85.03 7.15,-26.73 6.67,-54.9 -1.37,-81.38 -8.04,-26.46 -23.32,-50.17 -44.14,-68.43 -9.67,-8.27 -20.37,-15.2 -29.74,-23.76 -24.49,-22.17 -38.78,-54 -44.63,-86.46 -5.85,-32.46 -4.96,-65.88 -2.13,-98.98 -49.59,-3.81 -98.83,2.18 -147.22,11.83 -21.52,4.3 -51.81,6.28 -71.3,16.52 -21.92,11.64 3.57,26.53 9.57,43.11z"/>
    <path class="fil9" d="M7522.97 1045.82c7.24,19.25 7.43,40.33 6.39,60.87 -1.29,25.05 -7.58,54.44 -30.89,64 -15.17,6.09 -33.92,1.48 -47.4,10.69 -16.36,11.09 -15.57,34.94 -13.04,54.44 6.99,53.6 14.88,109.18 44.13,154.51 15.72,24.3 36.99,44.55 58.56,63.89 42.98,38.71 90.14,76.51 146.62,89.44 9.2,2.59 18.88,2.99 28.26,1.19 9.25,-2.85 17.65,-7.96 24.44,-14.85 32.73,-29.99 49.59,-72.8 71.4,-111.61 15.42,-27.76 33.82,-54.44 42.49,-85.03 7.15,-26.73 6.67,-54.9 -1.37,-81.38 -8.04,-26.46 -23.32,-50.17 -44.14,-68.43 -9.67,-8.27 -20.37,-15.2 -29.74,-23.76 -24.49,-22.17 -38.78,-54 -44.63,-86.46 -5.85,-32.46 -4.96,-65.88 -2.13,-98.98 -49.59,-3.81 -98.83,2.18 -147.22,11.83 -21.52,4.3 -51.81,6.28 -71.3,16.52 -21.92,11.64 3.57,26.53 9.57,43.11z"/>
    <path class="fil10" d="M7246.28 1191.47c-80.52,-27.56 -119,-135.26 -203.29,-147.34 -13.28,-1.93 -26.93,-1.19 -39.96,-4.25 -48.55,-11.48 -69.42,-67.51 -83.45,-115.27 -47.31,-159.21 -109.09,-315.01 -196.85,-456.16 -37.04,-59.39 -95.59,-108.19 -122.33,-173.22 -6.15,-14.85 -9.27,-31.77 -20.32,-43.5 -11.06,-11.73 -34.71,-13.41 -40.71,1.53 -1.67,5.3 -2.05,10.92 -1.1,16.38l5.8 61.62 -100.85 -9.06c-9.33,-1.59 -18.91,-0.91 -27.92,1.98 -9.73,4.86 -17.49,12.92 -21.96,22.82 -34.11,63.99 2.23,147.83 62.43,188.32 70.31,47.27 170.72,54.44 217.42,124.97 27.77,41.97 28.31,95.97 46.61,142.83 8.73,22.42 21.46,43.01 31.63,64.74 19.38,41.43 29.3,86.46 44.33,129.62 21.52,61.71 53.4,119.22 85.18,176.39 24.49,44.14 49.58,89.08 87.27,122.83 24.79,22.17 53.95,38.6 83.1,54.44 71.71,39.1 156.24,76.72 232.2,46.72 4.36,-67.61 -12.65,-142.98 -37.24,-206.38z"/>
    <path class="fil10" d="M7490.79 3322c-6.1,64.59 -45.37,123.08 -54.54,185.24 -60.49,-9.45 -120.04,-21.62 -177.66,-35.49 -7.09,-1.68 -14.13,-3.41 -21.22,-4.95 32.63,-89.09 4.22,-188.86 12.85,-283.74 0.84,-9.1 2.03,-18.21 3.61,-27.22 74.73,-25.43 142.22,-59.39 220.55,-49.49 1.54,15.83 3.12,31.72 4.66,47.56 3.14,31.63 6.25,63.25 9.32,94.82 3.14,24.28 3.96,48.81 2.43,73.25l0 0z"/>
    <path class="fil10" d="M8007.55 3483.54c-29.36,8.91 -59.5,16.68 -90.99,23.07 -5.26,1.09 -10.56,2.13 -15.87,3.11 -32.23,6.03 -64.85,10.45 -97.83,13.46 -3.37,-68.79 -49.59,-132.04 -56.33,-202.66 -1.38,-17.56 -1.2,-35.19 0.54,-52.71 0.6,-6.93 1.29,-13.85 1.94,-20.79l13.98 -142.38c11.13,-1.4 22.36,-1.95 33.57,-1.64 64.46,1.54 123.12,29.4 186.98,51.13 4.75,30.04 6.42,60.49 4.95,90.87 -2.43,77.31 -14.88,155.55 13.88,226.48 1.64,4.01 3.42,8.01 5.16,12.08z"/>
    <path class="fil11" d="M7170.57 2397.98c8.68,67.5 -25.89,132.14 -40.85,198.51 -9.92,43.9 -11.26,89.09 -12.59,134.13l-7.84 269.78c-0.79,26.97 -1.48,54.44 6.74,80.33 16.56,51.86 67.59,86.9 120.69,99.38 53.11,12.47 108.64,6.13 162.74,-1 26.52,-3.51 54.2,-7.62 76.16,-22.91 30.2,-21.04 43.39,-58.51 54.79,-93.45l32.18 -98.63c37.04,83.24 21.37,174.26 43.59,262.6 1.42,8.16 4.83,15.87 9.91,22.42 9.37,10.4 24.79,12.03 38.83,13.01 97.18,6.84 195.71,13.62 291.3,-4.95 26.28,-4.94 53.69,-12.96 71.84,-32.67 21.12,-22.91 24.8,-56.62 24.55,-87.74 -1.35,-106.95 -40.06,-210.14 -48.69,-316.75 -3.72,-45.68 -1.88,-91.6 -3.52,-137.43 -1.29,-34.47 -4.51,-68.84 -9.67,-102.95 -1.63,-15.62 -5.92,-30.86 -12.69,-45.04 -14.87,-27.72 -45.77,-42.76 -75.01,-54.44 -227.3,-92.16 -477.3,-91.26 -722.44,-82.21z"/>
    <path class="fil10" d="M7591.39 1069.97c117.76,0 213.21,-95.28 213.21,-212.82 0,-117.53 -95.45,-212.81 -213.21,-212.81 -117.76,0 -213.21,95.28 -213.21,212.81 0,117.54 95.45,212.82 213.21,212.82z"/>
    <path class="fil12" d="M7777.24 1232c-15.82,34.65 -40.71,69.29 -77.75,78.1 -34.06,8.17 -70.16,-8.21 -95.25,-32.61 -25.09,-24.4 -41.5,-56.07 -58.91,-86.42 -12.68,-22.17 -26.82,-44.54 -48.29,-58.5 -29.36,-19 -67.24,-18.51 -101.85,-12.91 -34.61,5.59 -68.97,15.58 -104.12,13.31 -43.79,-2.92 -88.41,-24.74 -129.71,-10.2 13.38,59.78 8.58,125.51 7.04,186.78 0.27,9.46 -1.08,18.9 -3.96,27.91 -3.61,8.41 -8.47,16.22 -14.44,23.17l-39.67 51.02c42.55,31.77 79.33,73.24 94.21,124.18 8.38,29 5.8,59.79 5.51,89.97 -0.95,88.64 18.34,176.93 12.25,265.38 -7.14,103.59 -48.59,201.49 -69.96,303.08 -18.31,87.22 -21.75,176.9 -10.21,265.27 222.23,76.76 451.21,116.06 686.14,128.93 41.51,2.27 86.33,2.63 120.39,-21.19 28.32,-19.79 44.18,-53.69 49.59,-87.84 5.4,-34.15 1.69,-68.89 -2.08,-103.24 -10.22,-92.88 -20.42,-185.76 -30.59,-278.64 -5.8,-52.86 -11.61,-106.01 -7.84,-159.02 2.83,-39.59 10.96,-78.44 19.04,-117.19l49.59 -237.86c7.08,-33.8 14.22,-67.85 28.26,-99.38 11.5,-25.73 27.41,-49.49 40.11,-74.54 15.13,-30.02 25.56,-62.19 30.94,-95.37 2.16,-9.63 2.02,-19.63 -0.39,-29.19 -5.31,-16.24 -21.52,-25.99 -36.64,-33.95 -92.22,-48.37 -191.05,-82.97 -293.34,-102.7 -6.95,29.15 -5.6,56.47 -18.05,83.64z"/>
    <path class="fil0" d="M7756.65 1089.46c24.79,-47.41 71.16,-80.67 98.08,-127 14.88,-26.26 23.2,-55.71 24.25,-85.87 1.06,-30.15 -5.18,-60.11 -18.2,-87.35 -9.47,-19.3 -22.31,-37.02 -29.74,-57.21 -8.28,-22.96 -9.07,-48.25 -18.64,-70.72 -13.15,-30.78 -41.6,-52.95 -72.59,-65.72 -30.99,-12.77 -64.46,-17.37 -97.83,-21.83l-112.65 -15.15c-16.32,-2.18 -33.22,-4.36 -49.09,0 -15.86,4.36 -30.64,17.28 -31.93,33.71 -1.54,19.45 15.57,37.56 11.6,56.67 -1.44,6.73 -5.4,13.56 -3.12,20.09 2.04,4.37 5.55,7.87 9.92,9.9 26.73,14.85 58.65,16.19 87.62,25.89 28.95,9.7 58.01,34.05 55.09,64.34 -1.59,16.28 -12.11,33.21 -4.96,47.81 6.85,13.51 24.8,15.98 39.12,20.19 46.36,13.41 78.89,63.6 72.15,111.36 -2.08,14.85 -7.44,29.04 -8.53,43.95 -3.62,52.16 4.61,67.05 47.3,97.4l2.18 -0.45z"/>
    <path class="fil8" d="M8046.27 1315.05c0.23,9.88 -1.58,19.7 -5.31,28.85 -15.47,32.92 -62.82,30.83 -94.2,49.49 -39.08,23.27 -47.7,75.18 -51.27,120.42 -4.06,51.23 -6.85,103.19 3.67,153.42 10.52,50.23 35.81,99.23 78.05,128.68 51.41,35.68 121.33,36.92 180.04,15.19 58.71,-21.73 107.74,-63.75 150.28,-109.68 40.36,-43.56 76.51,-92.1 98.18,-147.38 3.82,-9.9 7.19,-20.4 4.11,-30.29 -4.6,-14.85 -20.82,-21.58 -34.01,-29.7 -30.8,-18.55 -51.32,-50.92 -61.98,-85.13 -10.67,-34.19 -12.45,-70.57 -12.8,-106.45 -0.4,-37.27 -0.5,-78 -24.3,-106.76 -23.79,-28.75 -65.04,-36.82 -102.63,-36.52 -30.75,0 -115.83,2.92 -136.81,29.7 -17.21,22.27 10.22,94.28 8.97,126.16z"/>
    <path class="fil9" d="M8046.27 1315.05c0.23,9.88 -1.58,19.7 -5.31,28.85 -15.47,32.92 -62.82,30.83 -94.2,49.49 -39.08,23.27 -47.7,75.18 -51.27,120.42 -4.06,51.23 -6.85,103.19 3.67,153.42 10.52,50.23 35.81,99.23 78.05,128.68 51.41,35.68 121.33,36.92 180.04,15.19 58.71,-21.73 107.74,-63.75 150.28,-109.68 40.36,-43.56 76.51,-92.1 98.18,-147.38 3.82,-9.9 7.19,-20.4 4.11,-30.29 -4.6,-14.85 -20.82,-21.58 -34.01,-29.7 -30.8,-18.55 -51.32,-50.92 -61.98,-85.13 -10.67,-34.19 -12.45,-70.57 -12.8,-106.45 -0.4,-37.27 -0.5,-78 -24.3,-106.76 -23.79,-28.75 -65.04,-36.82 -102.63,-36.52 -30.75,0 -115.83,2.92 -136.81,29.7 -17.21,22.27 10.22,94.28 8.97,126.16z"/>
    <path class="fil8" d="M7781.9 2642.32c1.53,7.54 5.09,14.53 10.31,20.19 4.9,3.86 10.61,6.55 16.71,7.88 162.74,47.65 336.58,28.65 505.06,9.2 -23.06,-70.09 -46.26,-140.95 -52.66,-214.45 -5.3,-60.63 0.64,-123.73 -20.88,-180.6 -6.34,-16.83 -376.23,60.62 -412.73,66.91 -18.69,3.22 -40.21,2.13 -53.45,16.92 -15.96,17.92 -17.31,60.58 -18.99,82.9 -4.76,64.49 8.58,129.42 26.63,191.04z"/>
    <path class="fil8" d="M8152.43 3427.96c-29.74,13.75 -60.44,26.58 -92.22,38.05 -17.19,6.24 -34.75,12.07 -52.66,17.52 -29.36,8.91 -59.5,16.68 -90.99,23.07 -17.95,-45.43 -35.92,-90.89 -53.9,-136.35 -13.24,-33.46 -26.49,-67.06 -37.54,-101.26 -7.69,-23.36 -14.01,-47.14 -18.94,-71.22 -16.23,-81.88 -12.01,-166.47 12.3,-246.33 68.72,12.92 135.9,21.34 203.6,31.14 36.15,4.95 72.39,10.79 109.08,17.67 2.87,23.85 5.49,47.71 7.84,71.57 3.57,36.82 6.49,73.64 8.77,110.46 5.06,81.83 6.62,163.73 4.66,245.69z"/>
    <path class="fil9" d="M8152.43 3427.96c-29.74,13.75 -60.44,26.58 -92.22,38.05 -17.19,6.24 -34.75,12.07 -52.66,17.52 -29.36,8.91 -59.5,16.68 -90.99,23.07 -17.95,-45.43 -35.92,-90.89 -53.9,-136.35 -13.24,-33.46 -26.49,-67.06 -37.54,-101.26 -7.69,-23.36 -14.01,-47.14 -18.94,-71.22 -16.23,-81.88 -12.01,-166.47 12.3,-246.33 68.72,12.92 135.9,21.34 203.6,31.14 36.15,4.95 72.39,10.79 109.08,17.67 2.87,23.85 5.49,47.71 7.84,71.57 3.57,36.82 6.49,73.64 8.77,110.46 5.06,81.83 6.62,163.73 4.66,245.69z"/>
    <path class="fil8" d="M8533.73 3213.51c0.39,28.51 -7.73,57.61 -15.27,85.57 -0.54,1.98 -1.04,3.91 -1.53,5.89 -17.94,-5.57 -33.4,-17.14 -43.79,-32.77 -5.37,-8.47 -9.33,-17.74 -11.75,-27.47 -22.44,15.25 -45.08,30.34 -67.93,45.29 -74.72,49 -153.71,97.65 -241.02,137.94 -29.75,13.75 -60.45,26.58 -92.23,38.05 -6.62,-23.1 -12.89,-46.34 -18.84,-69.73 -6.5,-24.08 -11.61,-48.53 -15.27,-73.2 -7.27,-56.04 -1.64,-112.99 16.46,-166.54l2.23 -6.43c8.43,-23.81 19.31,-46.69 32.48,-68.25 12.34,-19.8 36.78,-16.48 61.73,-9.89 11.3,2.92 22.75,6.43 33.17,8.61 64.81,13.57 132.09,-0.44 198.33,3.27 31.57,1.57 62.5,9.43 90.99,23.11 31.88,15.98 57.57,40.43 67.64,74.24 1.43,4.86 2.52,9.83 3.27,14.85 0.84,5.79 1.28,11.62 1.34,17.47z"/>
    <path class="fil8" d="M7340.85 934.16c-102.39,-98.98 -218.77,-182.87 -337.82,-261.32 -30.97,-19.39 -60.78,-40.59 -89.25,-63.5 -29.75,-24.75 -55.69,-53.8 -87.27,-76.07 -31.59,-22.27 -70.66,-37.56 -108.59,-30.24 -37.94,7.33 -71.65,43.55 -66.1,81.46 4.95,33.36 35,56.22 62.77,75.38 52.56,36.28 105.36,72.66 162.53,101.11 19.86,8.99 39.12,19.24 57.67,30.69 35.6,23.95 61.54,59.39 88.46,92.7 101.62,126 226.09,231.77 366.91,311.8 1.69,0.99 60.35,-125.37 57.87,-141.74 -5.45,-37.67 -80.23,-94.14 -107.2,-120.27z"/>
    <path class="fil0" d="M8216.59 2533.54c-79.04,4.96 -154.84,31.58 -232.15,48.56 -77.3,16.98 -161.29,23.56 -233.05,-9.9l43.64 297.4c2.43,16.53 4.95,33.46 1.33,49.75 -3.31,15.54 -11.95,30.19 -11.2,46.07 1.14,25.15 24.79,42.82 47.06,54.44 64.68,34.09 137.14,50.75 210.23,48.35 -5.41,21.78 -12.15,43.31 -17.6,65.08 36.44,39.05 96.05,41.68 148.06,54.05 39.67,9.36 76.85,25.59 115.73,37.02 47.01,13.84 95.82,20.63 144.84,20.14 33.07,-0.34 68.12,-4.95 93.8,-25.54 31.59,-25.39 41.41,-68.54 48.25,-108.43 3.82,-22.27 7.34,-44.84 4.96,-67.31 -2.58,-25.83 -12.59,-50.28 -22.52,-74.24l-67.93 -164.55c-12.34,-29.7 -24.79,-59.84 -39.67,-88.5 -48.59,-92.69 -129.22,-188.85 -233.79,-182.38z"/>
    <path class="fil13" d="M8277.09 1505.99c5.88,-15.4 16.71,-28.41 30.8,-36.99 14.09,-8.58 30.64,-12.22 47.05,-10.38 19.83,2.77 37.54,13.61 54.54,24.21l94.7 58.99c15.7,9.32 30.76,19.67 45.07,30.98 65.3,54.05 90.49,142.89 97.68,227.27 7.19,84.38 0,170.2 16.8,253.2 -39.96,33.06 -84.29,61.02 -124.25,94.03 -20.93,17.27 -42.1,34.65 -57.96,56.87 -12.6,17.46 -21.58,37.47 -34.71,54.44 -21.52,26.83 -52.74,44.14 -86.92,48.21 21.67,12.56 33.82,36.97 39.67,61.27 5.85,24.3 7.44,49.5 13.94,73.79 8.93,33.02 27.41,63.16 33.51,96.81 4.27,23.22 2.38,47.02 3.92,70.57 7.73,121.9 103.58,228.46 97.38,350.4 -45.24,-16.41 -88.04,-38.87 -127.23,-66.76 -17.65,-12.62 -34.71,-26.28 -51.41,-39.9l-126.29 -102.2c-61.43,-49.5 -123.46,-100.07 -172.3,-162.23 -30.65,-39 -55.63,-82.16 -86.38,-121.07 -30.74,-38.89 -68.57,-74.23 -115.53,-90.56 -6.89,10.34 -19.14,17.52 -26.03,27.86 -1.22,1.63 -2.18,3.44 -2.88,5.35 -0.84,4.61 -0.27,9.37 1.64,13.66 5.54,20.02 8.86,40.59 9.91,61.32l3.12 37.22c1.17,9.87 1.17,19.84 0,29.7 -4.71,31.82 -34.26,56.51 -66.14,61.47 -4.62,0.99 -9.4,0.84 -13.94,-0.45 -8.87,-2.97 -13.78,-12.33 -16.46,-21.23 -12.54,-42.26 6.7,-86.86 8.23,-130.86 0.21,-11.17 -0.17,-22.33 -1.14,-33.46l-2.98 -43.9c-28.8,-5.99 -45.37,-36.87 -53.01,-65.23 -20.63,-76.57 -41.4,-155.8 -29.45,-234.19 3.18,-20.98 8.72,-42.26 4.95,-63.25 -4.95,-28.07 -25.19,-50.83 -35.84,-77.26 -34.71,-86.17 39.02,-179.71 32.18,-272.2 -2.88,-38.86 -27.57,-72.61 -42.44,-108.64 -7.7,-21 -17.68,-41.09 -29.75,-59.93 -15.17,-21.63 -35.65,-38.95 -55.53,-56.37 -61.41,-53.78 -119.65,-111.06 -174.44,-171.55 -28.14,-2.91 -54.53,-14.98 -75.12,-34.34 -13.09,-12.37 -23.85,-28.7 -24.2,-46.68 -0.34,-17.96 12.94,-36.82 30.94,-37.76 10.51,-0.54 20.33,4.65 30.59,6.93 32.13,7.03 64.46,-16.58 78.79,-46.22 14.33,-29.65 14.33,-63.75 14.08,-96.61 15.7,-2.78 31.85,-1.48 46.91,3.78 15.05,5.26 28.49,14.31 39.02,26.26 22.16,24.05 36.59,54.05 54.05,81.66 7.1,12.27 16.22,23.26 26.97,32.52 23.85,18.9 58.21,22.47 79.04,44.54 10.56,11.29 16.41,26.23 26.08,38.31 27.17,34 76.9,38.16 114.04,60.53 37.14,22.37 62.97,63.25 104.12,76.51 14.88,4.95 31.09,5.59 45.81,11.08 34.02,12.62 54.79,48.7 59.51,84.58 4.71,35.88 -3.33,72.16 -11.46,107.49l-19.09 82.7c-4.22,18.31 -7.44,40.34 6.1,53.4 6.39,5.28 13.9,9.06 21.96,11.04 34.71,11.28 73.39,22.37 106.01,6.39 15.42,-7.62 27.53,-20.49 38.58,-33.65 48.39,-56.92 80.58,-131.45 105.16,-201.48z"/>
    <path class="fil8" d="M8668.46 3188.96c-6.85,45.28 -31.84,89.83 -72.74,110.57 -24.53,12.07 -52.83,14.02 -78.79,5.45 -17.94,-5.57 -33.4,-17.14 -43.79,-32.77 -5.36,-8.47 -9.33,-17.74 -11.75,-27.47 0,-0.49 -0.25,-1.04 -0.34,-1.53 -3.73,-17.51 -5.28,-35.42 -4.62,-53.31 -0.01,-27.76 1.65,-55.52 4.96,-83.09 2.77,-23.22 7.34,-46.19 13.69,-68.69 9.22,-32.12 22.51,-63.06 34.71,-94.04 6.35,-16.33 12.45,-32.71 17.45,-49.5 3.03,-9.89 5.6,-20.09 7.69,-30.38l0.74 -3.71c0.4,-2.08 0.75,-4.16 1.1,-6.24 4.95,-28.22 6.39,-57.41 19.13,-82.9 29.75,-59.84 87.67,-44.55 96.5,10.64 0.66,4.28 1.05,8.59 1.14,12.91 1.33,69.84 -26.43,138.08 -13.74,208.16 3.57,17.09 8.08,33.97 13.48,50.59 4.46,15.29 8.47,30.79 11.55,46.47 6.23,29.19 7.45,59.23 3.62,88.83z"/>
    <path class="fil13" d="M8695.73 2412.44c1.33,28.6 0,57.56 5.75,85.61 13.44,66.32 64.45,125.02 58.81,192.43 -1.39,16.43 -7.49,34.1 -21.87,42.22 -14.38,8.12 -38.17,7.47 -42.89,23.8 -1.33,4.55 -0.64,9.5 -2.13,14 -3.12,9.6 -14.88,13.71 -24.79,13.47 -9.92,-0.25 -19.84,-3.52 -30.1,-2.68 -35.94,3.02 -49.14,51.03 -81.17,67.51 -21.57,11.08 -49.58,4.95 -67.38,-11.43 -17.8,-16.39 -25.58,-41.93 -24.2,-66.12 1.05,-18.27 6.85,-35.88 9.92,-53.9 5.6,-32.12 2.68,-65.03 -0.25,-97.5 -4.31,-47.56 -8.78,-95.72 -24.45,-140.81 -7.39,-21.28 -17.2,-41.62 -23.6,-63.2 -9.12,-30.53 -11.2,-62.65 -12.14,-94.48 -1.94,-66.96 2.67,-138.57 42.73,-192.42 30.1,-40.38 73.23,-73.2 107.3,-110.57 21.33,-23.41 27.47,-30.73 51.02,-10.89 19.39,16.29 39.67,38.75 41.85,60.83 5.95,56.57 0,112.2 10.61,169.82 10.61,57.6 24.19,115.15 26.97,174.3z"/>
    <path class="fil8" d="M8181.44 1322.38c139.66,0 252.88,-113.01 252.88,-252.41 0,-139.4 -113.22,-252.41 -252.88,-252.41 -139.66,0 -252.88,113.01 -252.88,252.41 0,139.4 113.21,252.41 252.88,252.41z"/>
    <path class="fil0" d="M8413 1552.81c5.56,-7.77 12.14,-16.14 21.57,-17.77 7.11,-0.54 14.23,0.96 20.54,4.3l66.58 27.77c18,-29.66 28.6,-63.2 30.94,-97.79 1.39,-21.23 -0.3,-42.76 3.77,-63.65 6.05,-30.98 24.45,-58.75 28.71,-90.03 3.37,-25.24 -2.73,-50.63 -6.4,-75.82 -11.3,-77.79 0.85,-157.18 -5.64,-235.53 -6.5,-78.35 -37.98,-162.28 -108,-198.26 -19.84,-9.9 -41.2,-15.84 -61.83,-23.66 -45.96,-17.47 -87.16,-45.43 -132.59,-64.34 -45.42,-18.91 -98.77,-27.57 -142.8,-5.84 -44.03,21.73 -69.67,82.85 -41.06,122.74 9.42,13.12 23.21,22.42 36.4,31.87 26.82,19.15 54.19,42.81 60.39,75.18 11.1,58.26 -49.59,103.94 -66.7,160.9 -6.31,22.25 -6.87,45.73 -1.63,68.25 7.39,33.75 25.43,65.63 24.79,100.17 -0.5,37.86 -23.21,72.16 -27.47,109.82 -1.54,13.81 -0.6,27.81 -2.33,41.57 -3.06,18.15 -8.44,35.83 -16.02,52.61 -39.67,98.98 -79.88,199.01 -138.83,287.99 63.12,1.07 125.52,-13.48 181.63,-42.37 -8.07,38.15 -23.51,74.36 -45.47,106.61 50.44,-5.83 98.97,-22.74 142.11,-49.5 -10.47,37.41 -25.63,73.35 -45.12,106.95 1.69,-2.87 32.88,-9.89 38.63,-13.16 11.82,-6.71 21.34,-16.84 27.27,-29.05 16.86,-30.09 27.38,-66.36 42.99,-97.65 33.39,-67.04 72.04,-131.35 115.58,-192.32l0 0z"/>
    <path class="fil0" d="M6495.2 38.11c-12.01,1.21 -24.1,1.49 -36.15,0.84 -2.05,-0.23 -4.12,0.37 -5.74,1.64 -1.62,1.28 -2.68,3.14 -2.94,5.18l-23.06 172.63c-1.78,12.53 -6.92,24.35 -14.88,34.2 -6.56,7.84 -11.44,16.94 -14.33,26.74 -2.89,9.8 -3.73,20.09 -2.48,30.22l0 293.24c0,0 -1.48,39.1 28.61,39.1 36.02,4.52 72.47,4.52 108.49,0 0,0 24.1,-4.55 24.1,-40.63l0 -288.74c1.85,-10.07 1.47,-20.43 -1.1,-30.34 -2.57,-9.91 -7.27,-19.15 -13.77,-27.07 -7.69,-9.88 -12.67,-21.6 -14.42,-34l-23.95 -176.24c-0.27,-1.98 -1.29,-3.78 -2.85,-5.04 -1.56,-1.26 -3.53,-1.88 -5.53,-1.74z"/>
    <path class="fil1" d="M6495.35 314.82l-36.54 0c-30.26,0 -54.79,24.48 -54.79,54.69l0 137.24c0,30.2 24.53,54.69 54.79,54.69l36.54 0c30.26,0 54.78,-24.49 54.78,-54.69l0 -137.24c0,-30.2 -24.52,-54.69 -54.78,-54.69z"/>
    <path class="fil0" d="M6837.32 290.52c-12,1.21 -24.09,1.49 -36.15,0.84 -2.05,-0.23 -4.11,0.37 -5.74,1.64 -1.62,1.28 -2.67,3.14 -2.94,5.18l-23.05 172.63c-1.78,12.53 -6.92,24.35 -14.88,34.2 -6.57,7.84 -11.44,16.94 -14.33,26.74 -2.89,9.8 -3.74,20.09 -2.48,30.22l0 293.24c0,0 -1.48,39.1 28.61,39.1 36.02,4.52 72.47,4.52 108.49,0 0,0 24.1,-4.55 24.1,-40.63l0 -288.74c1.83,-10.07 1.46,-20.43 -1.11,-30.34 -2.56,-9.91 -7.26,-19.15 -13.76,-27.07 -7.69,-9.89 -12.67,-21.61 -14.43,-34l-23.95 -176.24c-0.28,-1.98 -1.29,-3.78 -2.84,-5.04 -1.56,-1.26 -3.54,-1.88 -5.54,-1.74z"/>
    <path class="fil1" d="M6837.47 567.23l-36.54 0c-30.25,0 -54.78,24.48 -54.78,54.69l0 137.24c0,30.21 24.53,54.69 54.78,54.69l36.54 0c30.26,0 54.79,-24.48 54.79,-54.69l0 -137.24c0,-30.2 -24.53,-54.69 -54.79,-54.69z"/>
   </g>
  </g>
  <polygon class="fil14" points="3730.84,3528.18 9359.35,3528.18 9359.35,0 3730.84,0 "/>
 </g>
</svg>
